<?xml version="1.0" standalone="no"?>
<!DOCTYPE svg PUBLIC "-//W3C//DTD SVG 20010904//EN"
 "http://www.w3.org/TR/2001/REC-SVG-20010904/DTD/svg10.dtd">
<svg version="1.0" xmlns="http://www.w3.org/2000/svg"
 width="256.000000pt" height="256.000000pt" viewBox="0 0 256.000000 256.000000"
 preserveAspectRatio="xMidYMid meet">
<metadata>
Created by potrace 1.14, written by Peter Selinger 2001-2017
</metadata>
<g transform="translate(0.000000,256.000000) scale(0.100000,-0.100000)"
fill="#000000" stroke="none">
<path d="M1247 2334 c-1 -1 -31 -4 -67 -7 -84 -7 -182 -26 -195 -38 -5 -5 -16
-9 -25 -9 -8 0 -40 -12 -70 -27 -30 -14 -60 -27 -67 -29 -6 -1 -47 -26 -90
-54 -101 -68 -292 -261 -293 -296 0 -6 -18 -49 -39 -95 -22 -46 -42 -97 -45
-111 -2 -15 -7 -32 -11 -37 -11 -20 -16 -112 -6 -124 8 -10 214 -13 950 -12
516 0 942 3 945 6 24 24 -15 194 -68 299 -13 25 -26 56 -30 70 -6 24 -59 87
-164 193 -83 84 -235 177 -363 220 -73 25 -197 47 -282 49 -43 2 -79 2 -80 2z"/>
<path d="M352 1419 c-34 -13 -54 -47 -54 -89 1 -83 23 -89 336 -89 207 1 257
4 300 18 28 9 56 17 61 16 6 0 55 -27 110 -60 100 -61 167 -88 195 -82 31 8
69 26 133 66 37 22 67 38 67 35 0 -3 7 2 16 10 8 9 22 16 30 16 8 0 14 4 14 8
0 12 32 11 48 -1 6 -5 12 -6 12 -2 0 4 7 1 16 -6 12 -9 51 -14 123 -16 58 -1
108 -3 111 -4 3 -1 9 -1 14 0 9 2 193 2 241 0 75 -3 115 12 138 50 25 43 5
114 -37 128 -26 8 -1851 10 -1874 2z"/>
<path d="M72 1274 c-11 -8 -23 -28 -27 -45 -14 -62 64 -102 112 -57 60 56 -18
149 -85 102z"/>
<path d="M2412 1267 c-44 -47 -11 -123 49 -113 61 9 85 74 42 114 -31 28 -64
28 -91 -1z"/>
<path d="M368 1182 c-34 -4 -68 -45 -68 -81 0 -25 47 -85 64 -82 3 1 9 1 14 1
4 -1 108 0 232 0 124 1 230 1 235 1 6 0 75 0 155 0 80 0 152 0 160 0 15 1 809
0 845 0 184 -3 198 -2 232 17 47 26 38 125 -13 138 -36 9 -667 11 -698 2 -17
-4 -68 -30 -115 -57 -47 -27 -96 -52 -109 -56 -18 -5 -53 9 -145 56 l-122 62
-320 1 c-176 1 -332 0 -347 -2z"/>
<path d="M348 949 c-6 -4 -13 -15 -14 -25 -3 -21 62 -160 102 -219 15 -22 36
-59 46 -82 10 -24 30 -51 44 -60 14 -10 51 -38 82 -63 76 -60 81 -63 95 -76
24 -21 133 -80 187 -101 89 -34 95 -36 103 -38 4 -2 8 -3 10 -4 1 -2 11 -4 22
-7 11 -2 49 -10 85 -18 104 -22 370 -13 423 15 9 5 17 7 17 4 0 -2 30 7 68 21
37 14 72 27 77 28 19 4 120 59 165 89 43 30 75 56 126 105 13 12 27 22 32 22
16 0 72 60 72 76 0 9 18 43 40 75 22 33 37 59 33 59 -5 0 -3 4 3 8 6 4 25 37
42 73 28 60 34 101 16 118 -8 9 -1862 8 -1876 0z"/>
</g>
</svg>
